<svg width="28" height="28" viewBox="0 0 28 28" fill="none" xmlns="http://www.w3.org/2000/svg">
<path opacity="0.6" d="M25.875 19H2.125C1.43464 19 0.875 19.5596 0.875 20.25V25.875C0.875 26.5654 1.43464 27.125 2.125 27.125H25.875C26.5654 27.125 27.125 26.5654 27.125 25.875V20.25C27.125 19.5596 26.5654 19 25.875 19Z" fill="white"/>
<path d="M19 5.875C18.6545 5.875 18.375 5.59516 18.375 5.25V2.125H9.625V5.25C9.625 5.59516 9.34546 5.875 9 5.875C8.65454 5.875 8.375 5.59516 8.375 5.25V1.5C8.375 1.15484 8.65454 0.875 9 0.875H19C19.3455 0.875 19.625 1.15484 19.625 1.5V5.25C19.625 5.59516 19.3455 5.875 19 5.875Z" fill="white"/>
</svg>
