<svg width="34" height="37" viewBox="0 0 34 37" fill="none" xmlns="http://www.w3.org/2000/svg">
<g clip-path="url(#clip0_1_18)" filter="url(#filter0_d_1_18)">
<path opacity="0.6" d="M26.875 20H3.125C2.43464 20 1.875 20.5596 1.875 21.25V26.875C1.875 27.5654 2.43464 28.125 3.125 28.125H26.875C27.5654 28.125 28.125 27.5654 28.125 26.875V21.25C28.125 20.5596 27.5654 20 26.875 20Z" fill="white"/>
<path d="M20 6.875C19.6545 6.875 19.375 6.59516 19.375 6.25V3.125H10.625V6.25C10.625 6.59516 10.3455 6.875 10 6.875C9.65454 6.875 9.375 6.59516 9.375 6.25V2.5C9.375 2.15484 9.65454 1.875 10 1.875H20C20.3455 1.875 20.625 2.15484 20.625 2.5V6.25C20.625 6.59516 20.3455 6.875 20 6.875Z" fill="white"/>
<g filter="url(#filter1_d_1_18)">
<mask id="path-3-inside-1_1_18" fill="white">
<path fill-rule="evenodd" clip-rule="evenodd" d="M1.875 5.625H28.125C28.8154 5.625 29.375 6.18464 29.375 6.875V20C29.375 20.6904 28.8154 21.25 28.125 21.25H1.875C1.18464 21.25 0.625 20.6904 0.625 20V6.875C0.625 6.18464 1.18464 5.625 1.875 5.625ZM14.0986 16.2637C13.5463 16.2637 13.0986 16.7114 13.0986 17.2637C13.0986 17.816 13.5463 18.2637 14.0986 18.2637H16.0986C16.6509 18.2637 17.0986 17.816 17.0986 17.2637C17.0986 16.7114 16.6509 16.2637 16.0986 16.2637H14.0986Z"/>
</mask>
<path fill-rule="evenodd" clip-rule="evenodd" d="M1.875 5.625H28.125C28.8154 5.625 29.375 6.18464 29.375 6.875V20C29.375 20.6904 28.8154 21.25 28.125 21.25H1.875C1.18464 21.25 0.625 20.6904 0.625 20V6.875C0.625 6.18464 1.18464 5.625 1.875 5.625ZM14.0986 16.2637C13.5463 16.2637 13.0986 16.7114 13.0986 17.2637C13.0986 17.816 13.5463 18.2637 14.0986 18.2637H16.0986C16.6509 18.2637 17.0986 17.816 17.0986 17.2637C17.0986 16.7114 16.6509 16.2637 16.0986 16.2637H14.0986Z" fill="white"/>
<path d="M28.125 4.625H1.875V6.625H28.125V4.625ZM30.375 6.875C30.375 5.63236 29.3676 4.625 28.125 4.625V6.625C28.2631 6.625 28.375 6.73693 28.375 6.875H30.375ZM30.375 20V6.875H28.375V20H30.375ZM28.125 22.25C29.3676 22.25 30.375 21.2426 30.375 20H28.375C28.375 20.1381 28.2631 20.25 28.125 20.25V22.25ZM1.875 22.25H28.125V20.25H1.875V22.25ZM-0.375 20C-0.375 21.2426 0.632359 22.25 1.875 22.25V20.25C1.73693 20.25 1.625 20.1381 1.625 20H-0.375ZM-0.375 6.875V20H1.625V6.875H-0.375ZM1.875 4.625C0.632359 4.625 -0.375 5.63236 -0.375 6.875H1.625C1.625 6.73693 1.73693 6.625 1.875 6.625V4.625ZM14.0986 17.2637V17.2637V15.2637C12.9941 15.2637 12.0986 16.1591 12.0986 17.2637H14.0986ZM14.0986 17.2637V17.2637H12.0986C12.0986 18.3682 12.9941 19.2637 14.0986 19.2637V17.2637ZM16.0986 17.2637H14.0986V19.2637H16.0986V17.2637ZM16.0986 17.2637V17.2637V19.2637C17.2032 19.2637 18.0986 18.3682 18.0986 17.2637H16.0986ZM16.0986 17.2637V17.2637H18.0986C18.0986 16.1591 17.2032 15.2637 16.0986 15.2637V17.2637ZM14.0986 17.2637H16.0986V15.2637H14.0986V17.2637Z" fill="white" mask="url(#path-3-inside-1_1_18)"/>
</g>
</g>
<defs>
<filter id="filter0_d_1_18" x="-4" y="0" width="38" height="38" filterUnits="userSpaceOnUse" color-interpolation-filters="sRGB">
<feFlood flood-opacity="0" result="BackgroundImageFix"/>
<feColorMatrix in="SourceAlpha" type="matrix" values="0 0 0 0 0 0 0 0 0 0 0 0 0 0 0 0 0 0 127 0" result="hardAlpha"/>
<feOffset dy="4"/>
<feGaussianBlur stdDeviation="2"/>
<feComposite in2="hardAlpha" operator="out"/>
<feColorMatrix type="matrix" values="0 0 0 0 0 0 0 0 0 0 0 0 0 0 0 0 0 0 0.25 0"/>
<feBlend mode="normal" in2="BackgroundImageFix" result="effect1_dropShadow_1_18"/>
<feBlend mode="normal" in="SourceGraphic" in2="effect1_dropShadow_1_18" result="shape"/>
</filter>
<filter id="filter1_d_1_18" x="-3.375" y="5.625" width="36.75" height="23.625" filterUnits="userSpaceOnUse" color-interpolation-filters="sRGB">
<feFlood flood-opacity="0" result="BackgroundImageFix"/>
<feColorMatrix in="SourceAlpha" type="matrix" values="0 0 0 0 0 0 0 0 0 0 0 0 0 0 0 0 0 0 127 0" result="hardAlpha"/>
<feOffset dy="4"/>
<feGaussianBlur stdDeviation="2"/>
<feComposite in2="hardAlpha" operator="out"/>
<feColorMatrix type="matrix" values="0 0 0 0 0 0 0 0 0 0 0 0 0 0 0 0 0 0 0.25 0"/>
<feBlend mode="normal" in2="BackgroundImageFix" result="effect1_dropShadow_1_18"/>
<feBlend mode="normal" in="SourceGraphic" in2="effect1_dropShadow_1_18" result="shape"/>
</filter>
<clipPath id="clip0_1_18">
<rect width="30" height="30" fill="white"/>
</clipPath>
</defs>
</svg>
